<svg width="40" height="40" viewBox="0 0 36 33" fill="none" xmlns="http://www.w3.org/2000/svg">
<path d="M31.5 0H4.5C2.025 0 0 1.85625 0 4.125V9.42975C0 9.42975 5.781 12.5097 6.147 12.7022C6.612 12.9497 7.188 12.9456 7.653 12.7022C8.043 12.5001 19.683 6.36625 19.857 6.27413C20.2755 6.05275 20.727 6.127 20.979 6.26038C21.225 6.39375 21.888 6.73887 22.239 6.92037C22.587 7.10463 22.5705 7.61063 22.2585 7.77563L7.6905 15.4619C7.1715 15.7369 6.6555 15.7424 6.1185 15.4646C5.217 14.9971 1.497 13.0116 0 12.2127V14.9903L6.147 18.2627C6.612 18.5103 7.188 18.5061 7.653 18.2627C8.043 18.0606 19.683 11.9254 19.857 11.8333C20.2755 11.6132 20.727 11.6875 20.979 11.8222C21.225 11.9542 21.888 12.2994 22.239 12.4823C22.587 12.6651 22.5705 13.1698 22.2585 13.3348C21.9465 13.5011 8.3265 20.6855 7.6905 21.021C7.1715 21.296 6.6555 21.3029 6.1185 21.0238C5.217 20.5576 1.497 18.5707 0 17.7732V20.5508L6.147 23.8232C6.612 24.0708 7.188 24.0666 7.653 23.8232C8.043 23.6211 19.683 17.4859 19.857 17.3937C20.2755 17.1737 20.727 17.248 20.979 17.3814C21.225 17.5147 21.888 17.8599 22.239 18.0414C22.587 18.2243 22.5705 18.7316 22.2585 18.8966L7.6905 26.5829C7.1715 26.8565 6.6555 26.8634 6.1185 26.5842C5.217 26.1167 1.497 24.1312 0 23.3337V28.875C0 31.1437 2.025 33 4.5 33H31.5C33.975 33 36 31.1437 36 28.875V4.125C36 1.85625 33.975 0 31.5 0Z" fill="#08FE00"/>
</svg>
